<?xml version="1.0" encoding="utf-8"?>
<!-- Generator: Adobe Illustrator 26.3.1, SVG Export Plug-In . SVG Version: 6.00 Build 0)  -->
<svg version="1.1" id="Layer_1" xmlns="http://www.w3.org/2000/svg" xmlns:xlink="http://www.w3.org/1999/xlink" x="0px" y="0px"
	 viewBox="0 0 800 800" style="enable-background:new 0 0 800 800;" xml:space="preserve">
<style type="text/css">
	.st0{fill:none;}
	.st1{fill:#FFFFFF;}
</style>
<g>
	<path class="st0" d="M562.9,287.6c-69.6,0-102.2,25.5-124.2,58.5v-32.8c0-10.7-8.7-19.4-19.4-19.4h-93c-10.7,0-19.4,8.7-19.4,19.4
		v379.2c0,10.7,8.7,19.4,19.4,19.4h93c10.7,0,19.4-8.7,19.4-19.4V489.2c2.4-27.3,14.4-88.2,73.7-88.2c76.4,0,68.7,88.9,68.7,115.2
		v176.3c0,10.7,8.7,19.4,19.4,19.4h96.2c10.7,0,19.4-8.7,19.4-19.4l0-181.9C716,431.5,716.9,287.6,562.9,287.6z"/>
	<path class="st0" d="M226.5,293.9h-89.6c-11.6,0-21.1,9.4-21.1,21.1v375.8c0,11.6,9.4,21.1,21.1,21.1h89.6
		c11.6,0,21.1-9.4,21.1-21.1V315C247.6,303.3,238.1,293.9,226.5,293.9z"/>
	
		<ellipse transform="matrix(0.7071 -0.7071 0.7071 0.7071 -69.3539 179.2287)" class="st0" cx="181.7" cy="173.3" rx="85.2" ry="85.2"/>
	<path class="st1" d="M727.6,0H72.4C32.4,0,0,32.4,0,72.4v655.3c0,40,32.4,72.4,72.4,72.4h655.3c40,0,72.4-32.4,72.4-72.4V72.4
		C800,32.4,767.6,0,727.6,0z M247.6,690.8c0,11.6-9.4,21.1-21.1,21.1h-89.6c-11.6,0-21.1-9.4-21.1-21.1V315
		c0-11.6,9.4-21.1,21.1-21.1h89.6c11.6,0,21.1,9.4,21.1,21.1V690.8z M181.7,258.5c-47,0-85.2-38.1-85.2-85.2
		c0-47,38.1-85.2,85.2-85.2s85.2,38.1,85.2,85.2C266.8,220.4,228.7,258.5,181.7,258.5z M716,510.6l0,181.9
		c0,10.7-8.7,19.4-19.4,19.4h-96.2c-10.7,0-19.4-8.7-19.4-19.4V516.2c0-26.3,7.7-115.2-68.7-115.2c-59.3,0-71.3,60.9-73.7,88.2
		v203.3c0,10.7-8.7,19.4-19.4,19.4h-93c-10.7,0-19.4-8.7-19.4-19.4V313.3c0-10.7,8.7-19.4,19.4-19.4h93c10.7,0,19.4,8.7,19.4,19.4
		v32.8c22-33,54.7-58.5,124.2-58.5C716.9,287.6,716,431.5,716,510.6z"/>
</g>
</svg>
