<?xml version="1.0" encoding="utf-8"?>
<!-- Generator: Adobe Illustrator 26.3.1, SVG Export Plug-In . SVG Version: 6.00 Build 0)  -->
<svg version="1.1" id="Layer_1" xmlns="http://www.w3.org/2000/svg" xmlns:xlink="http://www.w3.org/1999/xlink" x="0px" y="0px"
	 viewBox="0 0 100 50" style="enable-background:new 0 0 100 50;" xml:space="preserve">
<g>
	<g>
		<path d="M43.2,15.8l-1,21.3l3.4,3.1v0.3H37v-0.3l3.4-3.1L41.5,14l-3.5-3.1v-0.4h8.8L56,31.7l8.6-21.2h8.9v0.4L69.9,14l1.5,23.1
			l3.4,3.1v0.3H62.6v-0.3l3.4-3.1l-1.4-21.2l-9.9,24.3h-0.7L43.2,15.8z"/>
	</g>
	<g>
		<path d="M9.1,40.3V9.2H20c4,0,7.1,0.7,9.3,2c2.2,1.3,3.3,3.7,3.3,7.1c0,2.4-0.6,4.3-1.8,5.9c-1.2,1.6-3,2.4-5.4,2.4
			c1.4,0,2.5,0.3,3.2,0.9c0.7,0.6,1.2,1.4,1.4,2.4c0.3,0.9,0.4,1.9,0.5,2.9c0.1,1,0.2,1.9,0.3,2.7c0.1,0.8,0.4,1.4,0.9,1.7
			c0.4,0.4,1.2,0.3,2.3-0.1v2.8c-0.5,0.4-1.2,0.7-2,0.9c-0.8,0.2-1.7,0.1-2.5-0.2c-0.8-0.3-1.5-0.8-2.1-1.7
			c-0.6-0.9-0.9-2.1-0.9-3.8c0-2-0.1-3.5-0.3-4.6c-0.2-1.1-0.7-1.9-1.5-2.5c-0.8-0.6-2.1-0.8-3.8-0.8c-1.7,0-4.1,0-7.1,0v13.2H9.1z
			 M13.7,23.7h6.4c1.9,0,3.4-0.1,4.6-0.4c1.2-0.2,2.1-0.7,2.7-1.5c0.6-0.7,0.9-1.9,0.9-3.4c0-1.7-0.4-3-1.1-3.8
			c-0.7-0.8-1.8-1.3-3.2-1.5C22.7,13.1,21,13,18.9,13h-5.2V23.7z"/>
	</g>
	<g>
		<path d="M77.6,11.2v-0.9h5.2v0.9h-2.1v5.9h-1v-5.9H77.6z"/>
		<path d="M83.7,17.1v-6.8h1.7l1.9,6.3h0l1.9-6.3h1.7v6.8h-1l0.1-6.3h0L88,17.1h-1.5l-1.9-6.3h0l0,6.3H83.7z"/>
	</g>
</g>
</svg>
